<?xml version="1.0" encoding="UTF-8" standalone="no"?>
<svg xmlns:rdf="http://www.w3.org/1999/02/22-rdf-syntax-ns#" xmlns="http://www.w3.org/2000/svg" height="32" width="32" version="1.0" xmlns:cc="http://creativecommons.org/ns#" xmlns:dc="http://purl.org/dc/elements/1.1/">
 <path style="block-progression:tb;color:#000000;text-transform:none;text-indent:0" d="m5.7001 2.0041c-0.3949 0.0765-0.7071 0.4666-0.7 0.8748v26.246c0 0.458 0.4105 0.875 0.8616 0.875h20.278c0.4511-0.000012 0.86025-0.4168 0.86027-0.87489v-20.286c-0.007-0.1337-0.042-0.2658-0.106-0.3828-1.931-2.7792-4.071-4.8382-6.623-6.3976-0.086-0.0327-0.178-0.0512-0.27-0.0547h-14.139c-0.053686-0.0052-0.10786-0.0052-0.16155 0zm11.3 4.996c0-0.4714 0.5286-1 1-1h1v4h4v1c0 0.4714-0.5286 1-1 1h-4c-0.4714 0-1-0.5286-1-1 0-0.92823 0.000003-2.9834 0-4z" fill="#FFF"/>
</svg>
